<svg width="51" height="16" viewBox="0 0 51 16" fill="none" xmlns="http://www.w3.org/2000/svg">
<path d="M6.54688 8.00781V6.66406L11.3984 6.65625V10.9062C10.6536 11.5 9.88542 11.9479 9.09375 12.25C8.30208 12.5469 7.48958 12.6953 6.65625 12.6953C5.53125 12.6953 4.50781 12.4557 3.58594 11.9766C2.66927 11.4922 1.97656 10.7943 1.50781 9.88281C1.03906 8.97135 0.804688 7.95312 0.804688 6.82812C0.804688 5.71354 1.03646 4.67448 1.5 3.71094C1.96875 2.74219 2.64062 2.02344 3.51562 1.55469C4.39062 1.08594 5.39844 0.851562 6.53906 0.851562C7.36719 0.851562 8.11458 0.986979 8.78125 1.25781C9.45312 1.52344 9.97917 1.89583 10.3594 2.375C10.7396 2.85417 11.0286 3.47917 11.2266 4.25L9.85938 4.625C9.6875 4.04167 9.47396 3.58333 9.21875 3.25C8.96354 2.91667 8.59896 2.65104 8.125 2.45312C7.65104 2.25 7.125 2.14844 6.54688 2.14844C5.85417 2.14844 5.25521 2.25521 4.75 2.46875C4.24479 2.67708 3.83594 2.95312 3.52344 3.29688C3.21615 3.64062 2.97656 4.01823 2.80469 4.42969C2.51302 5.13802 2.36719 5.90625 2.36719 6.73438C2.36719 7.75521 2.54167 8.60938 2.89062 9.29688C3.24479 9.98438 3.75781 10.4948 4.42969 10.8281C5.10156 11.1615 5.8151 11.3281 6.57031 11.3281C7.22656 11.3281 7.86719 11.2031 8.49219 10.9531C9.11719 10.6979 9.59115 10.4271 9.91406 10.1406V8.00781H6.54688ZM40.1484 12.5V1.04688H41.5547V12.5H40.1484ZM49.4219 9.82812L50.875 10.0078C50.6458 10.8568 50.2214 11.5156 49.6016 11.9844C48.9818 12.4531 48.1901 12.6875 47.2266 12.6875C46.013 12.6875 45.0495 12.3151 44.3359 11.5703C43.6276 10.8203 43.2734 9.77083 43.2734 8.42188C43.2734 7.02604 43.6328 5.94271 44.3516 5.17188C45.0703 4.40104 46.0026 4.01562 47.1484 4.01562C48.2578 4.01562 49.1641 4.39323 49.8672 5.14844C50.5703 5.90365 50.9219 6.96615 50.9219 8.33594C50.9219 8.41927 50.9193 8.54427 50.9141 8.71094H44.7266C44.7786 9.6224 45.0365 10.3203 45.5 10.8047C45.9635 11.2891 46.5417 11.5312 47.2344 11.5312C47.75 11.5312 48.1901 11.3958 48.5547 11.125C48.9193 10.8542 49.2083 10.4219 49.4219 9.82812ZM44.8047 7.55469H49.4375C49.375 6.85677 49.1979 6.33333 48.9062 5.98438C48.4583 5.44271 47.8776 5.17188 47.1641 5.17188C46.5182 5.17188 45.974 5.38802 45.5312 5.82031C45.0938 6.2526 44.8516 6.83073 44.8047 7.55469Z" fill="#3A3A3A"/>
<path d="M12.9375 8.35156C12.9375 6.8151 13.3646 5.67708 14.2188 4.9375C14.9323 4.32292 15.8021 4.01562 16.8281 4.01562C17.9688 4.01562 18.901 4.39062 19.625 5.14062C20.349 5.88542 20.7109 6.91667 20.7109 8.23438C20.7109 9.30208 20.5495 10.1432 20.2266 10.7578C19.9089 11.3672 19.4427 11.8411 18.8281 12.1797C18.2188 12.5182 17.5521 12.6875 16.8281 12.6875C15.6667 12.6875 14.7266 12.3151 14.0078 11.5703C13.2943 10.8255 12.9375 9.7526 12.9375 8.35156ZM14.3828 8.35156C14.3828 9.41406 14.6146 10.2109 15.0781 10.7422C15.5417 11.2682 16.125 11.5312 16.8281 11.5312C17.526 11.5312 18.1068 11.2656 18.5703 10.7344C19.0339 10.2031 19.2656 9.39323 19.2656 8.30469C19.2656 7.27865 19.0312 6.5026 18.5625 5.97656C18.099 5.44531 17.5208 5.17969 16.8281 5.17969C16.125 5.17969 15.5417 5.44271 15.0781 5.96875C14.6146 6.49479 14.3828 7.28906 14.3828 8.35156Z" fill="#EE0D0D"/>
<path d="M21.8438 8.35156C21.8438 6.8151 22.2708 5.67708 23.125 4.9375C23.8385 4.32292 24.7083 4.01562 25.7344 4.01562C26.875 4.01562 27.8073 4.39062 28.5312 5.14062C29.2552 5.88542 29.6172 6.91667 29.6172 8.23438C29.6172 9.30208 29.4557 10.1432 29.1328 10.7578C28.8151 11.3672 28.349 11.8411 27.7344 12.1797C27.125 12.5182 26.4583 12.6875 25.7344 12.6875C24.5729 12.6875 23.6328 12.3151 22.9141 11.5703C22.2005 10.8255 21.8438 9.7526 21.8438 8.35156ZM23.2891 8.35156C23.2891 9.41406 23.5208 10.2109 23.9844 10.7422C24.4479 11.2682 25.0312 11.5312 25.7344 11.5312C26.4323 11.5312 27.013 11.2656 27.4766 10.7344C27.9401 10.2031 28.1719 9.39323 28.1719 8.30469C28.1719 7.27865 27.9375 6.5026 27.4688 5.97656C27.0052 5.44531 26.4271 5.17969 25.7344 5.17969C25.0312 5.17969 24.4479 5.44271 23.9844 5.96875C23.5208 6.49479 23.2891 7.28906 23.2891 8.35156Z" fill="#FBBC04"/>
<path d="M31.0156 13.1875L32.3828 13.3906C32.4401 13.8125 32.599 14.1198 32.8594 14.3125C33.2083 14.5729 33.6849 14.7031 34.2891 14.7031C34.9401 14.7031 35.4427 14.5729 35.7969 14.3125C36.151 14.0521 36.3906 13.6875 36.5156 13.2188C36.5885 12.9323 36.6224 12.3307 36.6172 11.4141C36.0026 12.138 35.237 12.5 34.3203 12.5C33.1797 12.5 32.2969 12.0885 31.6719 11.2656C31.0469 10.4427 30.7344 9.45573 30.7344 8.30469C30.7344 7.51302 30.8776 6.78385 31.1641 6.11719C31.4505 5.44531 31.8646 4.92708 32.4062 4.5625C32.9531 4.19792 33.5938 4.01562 34.3281 4.01562C35.3073 4.01562 36.1146 4.41146 36.75 5.20312V4.20312H38.0469V11.375C38.0469 12.6667 37.9141 13.5807 37.6484 14.1172C37.388 14.6589 36.9714 15.0859 36.3984 15.3984C35.8307 15.7109 35.1302 15.8672 34.2969 15.8672C33.3073 15.8672 32.5078 15.6432 31.8984 15.1953C31.2891 14.7526 30.9948 14.0833 31.0156 13.1875ZM32.1797 8.20312C32.1797 9.29167 32.3958 10.0859 32.8281 10.5859C33.2604 11.0859 33.8021 11.3359 34.4531 11.3359C35.099 11.3359 35.6406 11.0885 36.0781 10.5938C36.5156 10.0938 36.7344 9.3125 36.7344 8.25C36.7344 7.23438 36.5078 6.46875 36.0547 5.95312C35.6068 5.4375 35.0651 5.17969 34.4297 5.17969C33.8047 5.17969 33.2734 5.4349 32.8359 5.94531C32.3984 6.45052 32.1797 7.20312 32.1797 8.20312Z" fill="#1A73E8"/>
</svg>
