<svg width="92" height="64" viewBox="0 0 92 64" fill="none" xmlns="http://www.w3.org/2000/svg">
<path d="M41.2002 7.4C35.8669 11.6667 35.3335 17.5333 39.6002 25M50.8002 20.2C56.1335 15.9333 56.6669 10.1815 52.4002 2.71484M46.0002 1C42.6054 1 39.3497 2.34857 36.9492 4.74903C34.5488 7.1495 33.2002 10.4052 33.2002 13.8C33.2002 17.1948 34.5488 20.4505 36.9492 22.851C39.3497 25.2514 42.6054 26.6 46.0002 26.6C49.395 26.6 52.6507 25.2514 55.0512 22.851C57.4516 20.4505 58.8002 17.1948 58.8002 13.8C58.8002 10.4052 57.4516 7.1495 55.0512 4.74903C52.6507 2.34857 49.395 1 46.0002 1ZM46.0002 5.8C43.8785 5.8 41.8436 6.64285 40.3433 8.14315C38.843 9.64344 38.0002 11.6783 38.0002 13.8C38.0002 15.9217 38.843 17.9566 40.3433 19.4569C41.8436 20.9571 43.8785 21.8 46.0002 21.8C48.1219 21.8 50.1568 20.9571 51.657 19.4569C53.1573 17.9566 54.0002 15.9217 54.0002 13.8C54.0002 11.6783 53.1573 9.64344 51.657 8.14315C50.1568 6.64285 48.1219 5.8 46.0002 5.8Z" stroke="#5B0BC1" stroke-width="1.96" stroke-linejoin="round"/>
<path d="M1.824 41.464H14.16V44.056H4.824V48.544H13.464V50.992H4.824V56.008H14.328V58.6H1.824V41.464ZM28.2452 58.6H25.6532V56.92H25.6052C25.2372 57.64 24.7012 58.16 23.9972 58.48C23.2932 58.784 22.5492 58.936 21.7652 58.936C20.7892 58.936 19.9332 58.768 19.1972 58.432C18.4772 58.08 17.8772 57.608 17.3972 57.016C16.9172 56.424 16.5572 55.728 16.3172 54.928C16.0772 54.112 15.9572 53.24 15.9572 52.312C15.9572 51.192 16.1092 50.224 16.4132 49.408C16.7172 48.592 17.1172 47.92 17.6132 47.392C18.1252 46.864 18.7012 46.48 19.3412 46.24C19.9972 45.984 20.6612 45.856 21.3332 45.856C21.7172 45.856 22.1092 45.896 22.5092 45.976C22.9092 46.04 23.2932 46.152 23.6612 46.312C24.0292 46.472 24.3652 46.68 24.6692 46.936C24.9892 47.176 25.2532 47.464 25.4612 47.8H25.5092V41.464H28.2452V58.6ZM18.6932 52.528C18.6932 53.056 18.7572 53.576 18.8852 54.088C19.0292 54.6 19.2372 55.056 19.5092 55.456C19.7972 55.856 20.1572 56.176 20.5892 56.416C21.0212 56.656 21.5332 56.776 22.1252 56.776C22.7332 56.776 23.2532 56.648 23.6852 56.392C24.1332 56.136 24.4932 55.8 24.7652 55.384C25.0532 54.968 25.2612 54.504 25.3892 53.992C25.5332 53.464 25.6052 52.928 25.6052 52.384C25.6052 51.008 25.2932 49.936 24.6692 49.168C24.0612 48.4 23.2292 48.016 22.1732 48.016C21.5332 48.016 20.9892 48.152 20.5412 48.424C20.1092 48.68 19.7492 49.024 19.4612 49.456C19.1892 49.872 18.9892 50.352 18.8612 50.896C18.7492 51.424 18.6932 51.968 18.6932 52.528ZM30.9651 50.776H37.9491V53.368H30.9651V50.776ZM39.3092 41.464H53.1812V44.056H47.7332V58.6H44.7332V44.056H39.3092V41.464ZM60.6319 51.304C60.5999 50.872 60.5039 50.456 60.3439 50.056C60.1999 49.656 59.9919 49.312 59.7199 49.024C59.4639 48.72 59.1439 48.48 58.7599 48.304C58.3919 48.112 57.9759 48.016 57.5119 48.016C57.0319 48.016 56.5919 48.104 56.1919 48.28C55.8079 48.44 55.4719 48.672 55.1839 48.976C54.9119 49.264 54.6879 49.608 54.5119 50.008C54.3519 50.408 54.2639 50.84 54.2479 51.304H60.6319ZM54.2479 53.104C54.2479 53.584 54.3119 54.048 54.4399 54.496C54.5839 54.944 54.7919 55.336 55.0639 55.672C55.3359 56.008 55.6799 56.28 56.0959 56.488C56.5119 56.68 57.0079 56.776 57.5839 56.776C58.3839 56.776 59.0239 56.608 59.5039 56.272C59.9999 55.92 60.3679 55.4 60.6079 54.712H63.1999C63.0559 55.384 62.8079 55.984 62.4559 56.512C62.1039 57.04 61.6799 57.488 61.1839 57.856C60.6879 58.208 60.1279 58.472 59.5039 58.648C58.8959 58.84 58.2559 58.936 57.5839 58.936C56.6079 58.936 55.7439 58.776 54.9919 58.456C54.2399 58.136 53.5999 57.688 53.0719 57.112C52.5599 56.536 52.1679 55.848 51.8959 55.048C51.6399 54.248 51.5119 53.368 51.5119 52.408C51.5119 51.528 51.6479 50.696 51.9199 49.912C52.2079 49.112 52.6079 48.416 53.1199 47.824C53.6479 47.216 54.2799 46.736 55.0159 46.384C55.7519 46.032 56.5839 45.856 57.5119 45.856C58.4879 45.856 59.3599 46.064 60.1279 46.48C60.9119 46.88 61.5599 47.416 62.0719 48.088C62.5839 48.76 62.9519 49.536 63.1759 50.416C63.4159 51.28 63.4799 52.176 63.3679 53.104H54.2479ZM73.8238 50.344C73.7118 49.576 73.3998 49 72.8878 48.616C72.3918 48.216 71.7598 48.016 70.9918 48.016C70.6398 48.016 70.2638 48.08 69.8638 48.208C69.4638 48.32 69.0958 48.544 68.7598 48.88C68.4238 49.2 68.1438 49.656 67.9198 50.248C67.6958 50.824 67.5838 51.584 67.5838 52.528C67.5838 53.04 67.6398 53.552 67.7518 54.064C67.8798 54.576 68.0718 55.032 68.3278 55.432C68.5998 55.832 68.9438 56.16 69.3598 56.416C69.7758 56.656 70.2798 56.776 70.8718 56.776C71.6718 56.776 72.3278 56.528 72.8398 56.032C73.3678 55.536 73.6958 54.84 73.8238 53.944H76.5598C76.3038 55.56 75.6878 56.8 74.7118 57.664C73.7518 58.512 72.4718 58.936 70.8718 58.936C69.8958 58.936 69.0318 58.776 68.2798 58.456C67.5438 58.12 66.9198 57.672 66.4078 57.112C65.8958 56.536 65.5038 55.856 65.2318 55.072C64.9758 54.288 64.8478 53.44 64.8478 52.528C64.8478 51.6 64.9758 50.728 65.2318 49.912C65.4878 49.096 65.8718 48.392 66.3838 47.8C66.8958 47.192 67.5278 46.72 68.2798 46.384C69.0478 46.032 69.9438 45.856 70.9678 45.856C71.6878 45.856 72.3678 45.952 73.0078 46.144C73.6638 46.32 74.2398 46.592 74.7358 46.96C75.2478 47.328 75.6638 47.792 75.9838 48.352C76.3038 48.912 76.4958 49.576 76.5598 50.344H73.8238ZM78.7838 41.464H81.5198V47.824H81.5678C81.9038 47.264 82.3998 46.8 83.0558 46.432C83.7278 46.048 84.4718 45.856 85.2878 45.856C86.6478 45.856 87.7198 46.208 88.5038 46.912C89.2878 47.616 89.6797 48.672 89.6797 50.08V58.6H86.9438V50.8C86.9118 49.824 86.7038 49.12 86.3198 48.688C85.9358 48.24 85.3358 48.016 84.5198 48.016C84.0558 48.016 83.6398 48.104 83.2718 48.28C82.9038 48.44 82.5918 48.672 82.3358 48.976C82.0798 49.264 81.8798 49.608 81.7358 50.008C81.5918 50.408 81.5198 50.832 81.5198 51.28V58.6H78.7838V41.464Z" fill="#5B0BC1"/>
</svg>
